<mxfile host="app.diagrams.net" agent="Mozilla/5.0 (Macintosh; Intel Mac OS X 10_15_7) AppleWebKit/537.36 (KHTML, like Gecko) Chrome/130.0.0.0 Safari/537.36" version="24.8.3">
  <diagram name="Page-1" id="OWpP5Db1pUOqhEzmtefg">
    <mxGraphModel dx="1242" dy="785" grid="1" gridSize="10" guides="1" tooltips="1" connect="1" arrows="1" fold="1" page="1" pageScale="1" pageWidth="850" pageHeight="1100" math="0" shadow="0">
      <root>
        <mxCell id="0" />
        <mxCell id="1" parent="0" />
        <mxCell id="Y3fwjekPdxdlOcdFAqla-1" value="" style="endArrow=classic;html=1;rounded=0;exitX=0.5;exitY=0.5;exitDx=0;exitDy=0;exitPerimeter=0;entryX=0;entryY=0.5;entryDx=0;entryDy=0;" edge="1" parent="1" source="Y3fwjekPdxdlOcdFAqla-3" target="Y3fwjekPdxdlOcdFAqla-6">
          <mxGeometry width="50" height="50" relative="1" as="geometry">
            <mxPoint x="120" y="360" as="sourcePoint" />
            <mxPoint x="280" y="420" as="targetPoint" />
          </mxGeometry>
        </mxCell>
        <mxCell id="Y3fwjekPdxdlOcdFAqla-2" value="34 requests per minute" style="text;html=1;align=center;verticalAlign=middle;resizable=0;points=[];autosize=1;strokeColor=none;fillColor=none;" vertex="1" parent="1">
          <mxGeometry x="100" y="389" width="150" height="30" as="geometry" />
        </mxCell>
        <mxCell id="Y3fwjekPdxdlOcdFAqla-3" value="Customers" style="shape=umlActor;verticalLabelPosition=bottom;verticalAlign=top;html=1;outlineConnect=0;" vertex="1" parent="1">
          <mxGeometry x="70" y="389" width="30" height="60" as="geometry" />
        </mxCell>
        <mxCell id="Y3fwjekPdxdlOcdFAqla-6" value="Booking services" style="swimlane;whiteSpace=wrap;html=1;" vertex="1" parent="1">
          <mxGeometry x="270" y="158" width="610" height="522" as="geometry" />
        </mxCell>
        <mxCell id="Y3fwjekPdxdlOcdFAqla-17" style="edgeStyle=orthogonalEdgeStyle;rounded=0;orthogonalLoop=1;jettySize=auto;html=1;entryX=0;entryY=0.5;entryDx=0;entryDy=0;" edge="1" parent="Y3fwjekPdxdlOcdFAqla-6" source="Y3fwjekPdxdlOcdFAqla-7" target="Y3fwjekPdxdlOcdFAqla-16">
          <mxGeometry relative="1" as="geometry" />
        </mxCell>
        <mxCell id="Y3fwjekPdxdlOcdFAqla-7" value="Flight" style="rhombus;whiteSpace=wrap;html=1;fillColor=#fff2cc;strokeColor=#d6b656;" vertex="1" parent="Y3fwjekPdxdlOcdFAqla-6">
          <mxGeometry x="170" y="52" width="80" height="80" as="geometry" />
        </mxCell>
        <mxCell id="Y3fwjekPdxdlOcdFAqla-8" style="edgeStyle=orthogonalEdgeStyle;rounded=0;orthogonalLoop=1;jettySize=auto;html=1;exitX=0;exitY=0.5;exitDx=0;exitDy=0;entryX=0;entryY=0.5;entryDx=0;entryDy=0;" edge="1" parent="Y3fwjekPdxdlOcdFAqla-6" source="Y3fwjekPdxdlOcdFAqla-6" target="Y3fwjekPdxdlOcdFAqla-7">
          <mxGeometry relative="1" as="geometry">
            <Array as="points">
              <mxPoint x="50" y="261" />
              <mxPoint x="50" y="92" />
            </Array>
          </mxGeometry>
        </mxCell>
        <mxCell id="Y3fwjekPdxdlOcdFAqla-18" style="edgeStyle=orthogonalEdgeStyle;rounded=0;orthogonalLoop=1;jettySize=auto;html=1;" edge="1" parent="Y3fwjekPdxdlOcdFAqla-6" source="Y3fwjekPdxdlOcdFAqla-9" target="Y3fwjekPdxdlOcdFAqla-16">
          <mxGeometry relative="1" as="geometry" />
        </mxCell>
        <mxCell id="Y3fwjekPdxdlOcdFAqla-9" value="Flight &amp;amp; Hotel" style="rhombus;whiteSpace=wrap;html=1;fillColor=#fff2cc;strokeColor=#d6b656;" vertex="1" parent="Y3fwjekPdxdlOcdFAqla-6">
          <mxGeometry x="170" y="221" width="80" height="80" as="geometry" />
        </mxCell>
        <mxCell id="Y3fwjekPdxdlOcdFAqla-12" style="edgeStyle=orthogonalEdgeStyle;rounded=0;orthogonalLoop=1;jettySize=auto;html=1;entryX=0;entryY=0.5;entryDx=0;entryDy=0;startArrow=classic;startFill=1;exitX=0;exitY=0.5;exitDx=0;exitDy=0;endArrow=none;endFill=0;" edge="1" parent="Y3fwjekPdxdlOcdFAqla-6" source="Y3fwjekPdxdlOcdFAqla-10" target="Y3fwjekPdxdlOcdFAqla-6">
          <mxGeometry relative="1" as="geometry">
            <mxPoint x="100" y="453" as="sourcePoint" />
            <mxPoint x="-70" y="282" as="targetPoint" />
            <Array as="points">
              <mxPoint x="50" y="432" />
              <mxPoint x="50" y="262" />
            </Array>
          </mxGeometry>
        </mxCell>
        <mxCell id="Y3fwjekPdxdlOcdFAqla-19" style="edgeStyle=orthogonalEdgeStyle;rounded=0;orthogonalLoop=1;jettySize=auto;html=1;entryX=0;entryY=0.5;entryDx=0;entryDy=0;" edge="1" parent="Y3fwjekPdxdlOcdFAqla-6" source="Y3fwjekPdxdlOcdFAqla-10" target="Y3fwjekPdxdlOcdFAqla-16">
          <mxGeometry relative="1" as="geometry" />
        </mxCell>
        <mxCell id="Y3fwjekPdxdlOcdFAqla-10" value="Flight &amp;amp; Hotel &amp;amp; Car" style="rhombus;whiteSpace=wrap;html=1;fillColor=#fff2cc;strokeColor=#d6b656;" vertex="1" parent="Y3fwjekPdxdlOcdFAqla-6">
          <mxGeometry x="170" y="392" width="80" height="80" as="geometry" />
        </mxCell>
        <mxCell id="Y3fwjekPdxdlOcdFAqla-11" style="edgeStyle=orthogonalEdgeStyle;rounded=0;orthogonalLoop=1;jettySize=auto;html=1;exitX=0;exitY=0.5;exitDx=0;exitDy=0;entryX=0;entryY=0.5;entryDx=0;entryDy=0;" edge="1" parent="Y3fwjekPdxdlOcdFAqla-6" source="Y3fwjekPdxdlOcdFAqla-6" target="Y3fwjekPdxdlOcdFAqla-9">
          <mxGeometry relative="1" as="geometry">
            <Array as="points">
              <mxPoint x="170" y="261" />
            </Array>
          </mxGeometry>
        </mxCell>
        <mxCell id="Y3fwjekPdxdlOcdFAqla-13" value="20%" style="text;html=1;align=center;verticalAlign=middle;resizable=0;points=[];autosize=1;strokeColor=none;fillColor=none;" vertex="1" parent="Y3fwjekPdxdlOcdFAqla-6">
          <mxGeometry x="90" y="60" width="50" height="30" as="geometry" />
        </mxCell>
        <mxCell id="Y3fwjekPdxdlOcdFAqla-14" value="70%" style="text;html=1;align=center;verticalAlign=middle;resizable=0;points=[];autosize=1;strokeColor=none;fillColor=none;" vertex="1" parent="Y3fwjekPdxdlOcdFAqla-6">
          <mxGeometry x="90" y="230" width="50" height="30" as="geometry" />
        </mxCell>
        <mxCell id="Y3fwjekPdxdlOcdFAqla-16" value="M/M/4/10/âˆž" style="whiteSpace=wrap;html=1;aspect=fixed;fillColor=#d5e8d4;strokeColor=#82b366;" vertex="1" parent="Y3fwjekPdxdlOcdFAqla-6">
          <mxGeometry x="400" y="188" width="146" height="146" as="geometry" />
        </mxCell>
        <mxCell id="Y3fwjekPdxdlOcdFAqla-15" value="10%" style="text;html=1;align=center;verticalAlign=middle;resizable=0;points=[];autosize=1;strokeColor=none;fillColor=none;" vertex="1" parent="1">
          <mxGeometry x="355" y="558" width="50" height="30" as="geometry" />
        </mxCell>
        <mxCell id="Y3fwjekPdxdlOcdFAqla-22" value="Request done" style="ellipse;whiteSpace=wrap;html=1;fillColor=#dae8fc;strokeColor=#6c8ebf;strokeWidth=3;" vertex="1" parent="1">
          <mxGeometry x="920" y="379" width="80" height="80" as="geometry" />
        </mxCell>
        <mxCell id="Y3fwjekPdxdlOcdFAqla-23" value="" style="edgeStyle=orthogonalEdgeStyle;rounded=0;orthogonalLoop=1;jettySize=auto;html=1;" edge="1" parent="1" source="Y3fwjekPdxdlOcdFAqla-16" target="Y3fwjekPdxdlOcdFAqla-22">
          <mxGeometry relative="1" as="geometry" />
        </mxCell>
      </root>
    </mxGraphModel>
  </diagram>
</mxfile>
